<svg xmlns="http://www.w3.org/2000/svg" id="facebook" data-name="facebook" viewBox="0 0 40 40">

    <path class="cls-1"
        d="M24.51 10.8h-9a4.66 4.66 0 0 0-4.66 4.66v9a4.67 4.67 0 0 0 4.66 4.67h9a4.67 4.67 0 0 0 4.66-4.67v-9a4.66 4.66 0 0 0-4.66-4.66Zm-4.42 14.74A5.57 5.57 0 1 1 25.66 20a5.57 5.57 0 0 1-5.57 5.54ZM26 15.36A1.33 1.33 0 1 1 27.31 14 1.32 1.32 0 0 1 26 15.36Z M20.09 16.41A3.57 3.57 0 1 0 23.66 20a3.57 3.57 0 0 0-3.57-3.59Z M20 .73A19.27 19.27 0 1 0 39.27 20 19.27 19.27 0 0 0 20 .73Zm11.3 23.75a6.8 6.8 0 0 1-6.79 6.79h-9a6.8 6.8 0 0 1-6.81-6.79v-9a6.8 6.8 0 0 1 6.79-6.79h9a6.8 6.8 0 0 1 6.79 6.79Z">
    </path>
    <path class="cls-1" d=""></path>
</svg>